<svg xmlns="http://www.w3.org/2000/svg" viewBox="0 0 50 57"><path d="M20.821 0a5.364 5.364 0 10.001 10.727A5.364 5.364 0 0020.821 0zm-2.889 11.083c-3.158.007-3.741 1.995-3.741 3.622v19.138a2.96 2.96 0 002.969 2.969l13.597-.06s4.681 7.089 7.026 10.628c.703 1.061 1.638 1.999 2.988 1.999 1.781 0 3.421-1.453 3.226-3.226-.074-.695-.231-1.354-.652-1.979-2.091-3.117-6.234-9.859-8.511-12.39-.578-.643-1.377-1.112-2.315-1.109l-11.242.04V18.802l8.016 5.542a2.527 2.527 0 003.522-.653 2.526 2.526 0 00-.653-3.523l-12.508-8.629c-.434-.3-1.236-.456-1.722-.456zm30.994 5.364a.75.75 0 00-.535.217l-9.995 9.995H24.225a.748.748 0 00-.751.752v.277c0 .419.333.752.751.752h14.567a.832.832 0 00.573-.217l10.292-10.292a.756.756 0 000-1.069l-.198-.198a.75.75 0 00-.533-.217zm-36.16 5.225C5.423 23.879 0 30.721 0 38.949 0 48.995 8.121 57 17.892 57c7.486 0 14.004-4.687 16.645-11.4l-2.691-4.058c-1.22 6.446-6.914 11.421-13.953 11.421-7.955 0-14.21-6.363-14.21-14.014 0-5.9 3.735-11.026 9.084-13.062v-4.215z"/></svg>