<svg xmlns="http://www.w3.org/2000/svg" viewBox="0 0 34.354 20.866"><path d="M7.922.354h3.009l7.141 19.675h-2.919l-2.055-5.893H5.379l-2.134 5.893H.512L7.922.354zm4.42 11.612L9.313 3.274l-3.148 8.692h6.177z"/><path d="M18.578 20.385H14.9l-2.055-5.894H5.627l-2.134 5.894H0L7.676 0h3.503l7.399 20.385zm-3.174-.71h2.162L10.682.709H8.168L1.025 19.675h1.971l2.134-5.893h8.219l2.055 5.893zm-2.564-7.354H5.658L9.319 2.215l3.521 10.106zm-6.17-.709h5.172L9.306 4.333 6.67 11.612z"/><g><path d="M28.789 11.348c.553-.071.924-.302 1.111-.695.107-.215.16-.524.16-.928 0-.824-.293-1.423-.875-1.795-.584-.372-1.42-.557-2.506-.557-1.258 0-2.149.341-2.674 1.023-.295.377-.486.938-.576 1.682h-2.25c.046-1.773.619-3.006 1.721-3.7 1.1-.694 2.379-1.041 3.833-1.041 1.686 0 3.053.322 4.107.964 1.043.643 1.564 1.643 1.564 3v8.265c0 .25.051.45.154.604.102.15.318.227.648.227.107 0 .229-.008.363-.02.133-.014.275-.033.428-.061v1.78c-.375.107-.66.175-.857.201-.195.026-.463.04-.803.04-.83 0-1.434-.295-1.809-.885-.197-.313-.334-.754-.416-1.325-.488.644-1.195 1.2-2.115 1.675-.92.473-1.932.709-3.04.709-1.332 0-2.418-.403-3.262-1.211-.844-.807-1.266-1.816-1.266-3.029 0-1.329.414-2.358 1.246-3.09.83-.732 1.92-1.182 3.268-1.353l3.846-.48zm-5.078 6.513c.51.401 1.112.602 1.808.602.85 0 1.67-.197 2.465-.589 1.34-.651 2.01-1.716 2.01-3.196v-1.939c-.295.189-.674.346-1.137.471s-.916.215-1.363.268l-1.457.188c-.874.116-1.53.299-1.969.549-.746.418-1.119 1.088-1.119 2.004 0 .694.254 1.242.762 1.642z"/><path d="M24.958 20.866c-1.418 0-2.599-.44-3.507-1.309-.912-.872-1.375-1.979-1.375-3.286 0-1.428.459-2.557 1.365-3.355.881-.776 2.045-1.26 3.459-1.438l3.844-.481c.428-.055.701-.218.836-.497.057-.118.125-.344.125-.775 0-.701-.232-1.191-.713-1.496-.521-.333-1.301-.502-2.314-.502-1.135 0-1.94.298-2.392.885-.254.325-.423.832-.504 1.508l-.037.313h-2.929l.01-.364c.048-1.891.682-3.234 1.885-3.991 1.153-.727 2.507-1.095 4.022-1.095 1.744 0 3.188.342 4.291 1.016 1.152.709 1.736 1.821 1.736 3.303v8.265c0 .178.031.313.094.402.012.02.105.073.355.073.094 0 .205-.007.326-.019.125-.013.26-.031.402-.057l.416-.072v2.471l-.258.073a6.911 6.911 0 01-.906.212 6.752 6.752 0 01-.852.043c-.955 0-1.664-.353-2.107-1.048a2.841 2.841 0 01-.322-.753c-.467.458-1.053.867-1.748 1.227-.967.495-2.043.747-3.202.747zM26.68 7.018c1.15 0 2.057.207 2.697.614.689.44 1.039 1.145 1.039 2.094 0 .463-.064.818-.197 1.085-.24.502-.707.802-1.385.889l-3.846.481c-1.27.161-2.306.586-3.077 1.266-.758.666-1.126 1.591-1.126 2.824 0 1.121.379 2.029 1.157 2.773.782.748 1.769 1.111 3.016 1.111 1.044 0 2.013-.225 2.878-.67.869-.447 1.539-.977 1.996-1.573l.516-.675.117.84c.074.52.195.918.365 1.188.307.482.801.718 1.508.718.322 0 .576-.013.756-.037.133-.019.316-.059.551-.12v-1.102c-.014.001-.027.004-.039.004a3.875 3.875 0 01-.396.021c-.453 0-.771-.129-.943-.383-.143-.21-.217-.479-.217-.801V9.301c0-1.237-.455-2.12-1.396-2.698-.988-.605-2.309-.912-3.92-.912-1.379 0-2.605.332-3.644.986-.928.585-1.433 1.583-1.536 3.045h1.57c.111-.662.311-1.17.604-1.546.591-.767 1.584-1.158 2.952-1.158zm-1.16 11.799c-.776 0-1.457-.228-2.028-.677-.596-.471-.898-1.117-.898-1.924 0-1.051.438-1.828 1.3-2.313.483-.275 1.17-.469 2.097-.592l1.459-.188c.43-.051.871-.139 1.314-.259.428-.114.775-.259 1.039-.427l.545-.349v2.587c0 1.62-.742 2.803-2.209 3.515a5.834 5.834 0 01-2.619.627zm4.119-5.498a5.339 5.339 0 01-.689.232c-.477.13-.951.223-1.412.278l-1.453.187c-.824.11-1.444.28-1.842.505-.632.355-.938.91-.938 1.697 0 .586.205 1.031.628 1.365.449.354.969.525 1.59.525.789 0 1.564-.188 2.307-.553 1.219-.593 1.811-1.533 1.811-2.878v-1.358h-.002z"/></g></svg>