<svg xmlns="http://www.w3.org/2000/svg" viewBox="0 0 50 50"><path d="M24.982 0C11.199 0 0 11.199 0 24.982s11.199 24.983 24.982 24.983 24.983-11.2 24.983-24.983C49.965 11.199 38.765 0 24.982 0zM48.24 24.982c0 4.25-1.146 8.213-3.102 11.601l-5.053-2.93-5.227-2.986a11.225 11.225 0 001.551-5.685c0-3.159-1.263-5.973-3.33-8.041l8.386-8.384c4.134 4.192 6.775 9.993 6.775 16.425zm-32.907 0c0-5.341 4.365-9.648 9.648-9.648 5.342 0 9.649 4.365 9.649 9.648 0 5.342-4.366 9.649-9.649 9.649a9.633 9.633 0 01-9.648-9.649zm9.649-23.259v11.831c-5.284 0-9.706 3.618-11.027 8.5L2.526 19.009C5.169 9.074 14.243 1.723 24.982 1.723zM4.881 36.641l5.111-2.93 5.169-2.986c1.952 3.388 5.628 5.686 9.82 5.686 1.035 0 2.067-.172 2.987-.402l3.044 11.431a23.638 23.638 0 01-6.088.802c-8.499-.002-16.023-4.71-20.043-11.601z"/></svg>