<svg xmlns="http://www.w3.org/2000/svg" viewBox="0 0 36.801 36.801"><path d="M18.4 0C8.238 0 0 8.238 0 18.4s8.238 18.4 18.4 18.4 18.4-8.238 18.4-18.4C36.789 8.243 28.558.011 18.4 0zm0 26.4a8 8 0 110-16 8 8 0 010 16zm10-10.892l4.288-4.308a15.956 15.956 0 01.088 14.208l-4.332-4.316a10.372 10.372 0 00-.056-5.6l.012.016zm3.016-6.4l-4.039 4.04a10.48 10.48 0 00-4.028-3.892L27.404 5.2a16.113 16.113 0 014 3.9l.012.008zm-6.168-5.164l-4.359 4.36a10.375 10.375 0 00-5.18.052L11.38 4.028a15.973 15.973 0 0113.868-.084zM9.249 5.289L13.3 9.34a10.472 10.472 0 00-3.96 3.96L5.289 9.249a16.089 16.089 0 013.96-3.96zM4.028 11.38l4.328 4.328a10.375 10.375 0 00-.052 5.18l-4.36 4.36a15.973 15.973 0 01.084-13.868zM5.2 27.404l4.048-4.068a10.474 10.474 0 003.892 4.028l-4.04 4.04a16.113 16.113 0 01-3.9-4zm6 5.284l4.308-4.288c1.826.532 3.763.552 5.6.057l4.312 4.315a15.956 15.956 0 01-14.22-.084zm16.341-1.176L23.5 27.461a10.496 10.496 0 003.961-3.96l4.051 4.052a16.081 16.081 0 01-3.959 3.959h-.012z"/></svg>