<svg xmlns="http://www.w3.org/2000/svg" viewBox="0 0 225.2 155.9"><path d="M225.2 156.1v-21.3c0-4.6-2.1-8.7-5.5-11.7-19.2-15.8-40-26.3-44.4-28.4-.5-.2-.7-.7-.7-1.1V79.2c2.3-3.9 3.7-8 4.3-11.7 1.6-.2 3.9-2.5 6.2-10.8 3-10.8 0-12.8-2.7-12.6 6.9-31.8-11-32-11-32-1.6-6.6-11-13.7-19.9-11.9-8.9 1.8-27-.2-27-.2-.2 3.9 3 6.6 3 6.6-16 9.8-12.4 31.4-11 37.5-2.7 0-5.5 2.1-2.5 12.6 2.3 8.2 4.6 10.5 6.2 10.8.7 3.7 2.1 7.8 4.3 11.7v14.4c0 .5-.2.9-.7 1.1-3.4 1.6-16.9 8.5-32 19.2-3-1.1-5.9-2.3-8.2-3.4l-.5-.5c-1.4-.9-2.3-2.5-2.3-4.1V97s19.5.7 28.8-8.9c0 0-13.5-3.9-11-28.4s-3-46.2-22.9-44.4c0 0-8.5-10.3-25.6-3.9-5.9 2.3-21.5 7.8-20.8 41.9.7 34.2-12.1 34.4-12.1 34.4s6.6 9.6 29.3 9.4v8.7c0 1.6-.9 3.2-2.3 4.1l-.5.2c-6.9 3.7-21.1 7.3-21.3 7.6s-4.8.9-13.3 5c-8.7 4.1-9.2 13-9.2 13v20.1h225.2v.3z"/></svg>