<svg xmlns="http://www.w3.org/2000/svg" viewBox="0 0 169.9 166.6"><path d="M167 149.3c-4.8-10.9-28.5-18.1-44.2-24.9-15.7-6.8-13.6-10.9-14.1-16.5-.1-.7-.1-1.5-.2-2.3 4.7-4.5 8.6-10.4 11.2-17 0 0 .1-.4.2-.5.6-1.6 1.1-3.3 1.6-5 3.6-.7 5.7-4.5 6.5-8.1.8-1.4 2.5-5 2.1-9-.5-4.9-2.4-7.3-4.7-8.4.6-1.4 1.2-2.9 1.6-4.4 2.3-7.6.1-24.5-3.7-33.8-3.9-9.4-19.8-16.5-24.9-16.3-4.4.2-6 2.1-7.9 3.5-.3-1.4-.9-2.7-2.1-3.6-4.6-3.4-19.2-4.9-26 .3-6.8 5.2-8.4 8-13.6 15.4-5.2 7.4-6.9 25.6-6.4 29.4.3 2.4 1.3 6.2 2.4 9.5-2.2 1.1-4.1 3.5-4.6 8.4-.4 4 1.3 7.5 2.1 9 .8 3.6 3 7.5 6.7 8.1.5 1.7 1 3.4 1.6 5 0 .1.1.2.1.3l.1.1c2.6 6.8 6.6 12.8 11.5 17.3 0 .7-.1 1.4-.1 2-.6 5.6 1.1 9.7-14.6 16.5-15.7 6.8-39.4 14-44.2 24.9-4.8 10.9-2.9 17.3-2.9 17.3H170c-.1.1 1.8-6.3-3-17.2z"/></svg>