<svg xmlns="http://www.w3.org/2000/svg" viewBox="0 0 50 40.733"><path d="M26.848 1.851v.234a7.414 7.414 0 015.555 7.172 7.413 7.413 0 01-5.555 7.172v22.452a1.853 1.853 0 01-3.704 0V16.43c-3.194-.823-5.556-3.725-5.556-7.172a7.413 7.413 0 015.556-7.172v-.235a1.852 1.852 0 013.704 0zm-5.556 7.407a3.706 3.706 0 003.704 3.702 3.705 3.705 0 003.701-3.702 3.705 3.705 0 00-3.701-3.704 3.708 3.708 0 00-3.704 3.704zM9.258 24.304c3.192.823 5.555 3.725 5.555 7.171a7.414 7.414 0 01-5.555 7.172v.234a1.852 1.852 0 01-3.704 0v-.234A7.411 7.411 0 010 31.476a7.41 7.41 0 015.554-7.171V1.851a1.85 1.85 0 113.704 0v22.453zm-5.556 7.172c0 2.041 1.662 3.705 3.704 3.705s3.703-1.662 3.703-3.705a3.706 3.706 0 00-3.703-3.702 3.707 3.707 0 00-3.704 3.702zM44.438 15.972a7.414 7.414 0 015.555 7.172 7.413 7.413 0 01-5.555 7.172v8.565a1.853 1.853 0 01-3.705 0v-8.565a7.413 7.413 0 01-5.553-7.172 7.412 7.412 0 015.553-7.172V1.851a1.852 1.852 0 013.705 0v14.121zm-5.556 7.173c0 2.041 1.66 3.703 3.703 3.703s3.704-1.661 3.704-3.703-1.661-3.704-3.704-3.704a3.707 3.707 0 00-3.703 3.704z"/></svg>