<svg xmlns="http://www.w3.org/2000/svg" viewBox="0 0 777.6 776.735"><path d="M387.936 527.903c76.896 0 139.104-62.207 139.104-139.104s-62.208-139.104-139.104-139.104c-76.896 0-139.104 62.208-139.104 139.104 0 76.033 62.208 139.104 139.104 139.104zm0-243.647c57.889 0 104.544 46.656 104.544 104.544 0 57.024-46.655 103.68-104.544 103.68-57.888 0-104.544-46.655-104.544-104.544.864-57.024 47.52-103.68 104.544-103.68z"/><path d="M100.224 488.16h5.185l12.096 29.376-3.456 3.456c-38.88 38.88-38.88 101.952 0 141.695 19.008 19.009 44.064 29.376 70.848 29.376s51.84-10.367 70.849-29.376l3.456-3.456 29.376 12.097v5.184c0 55.296 44.928 100.224 100.224 100.224s100.225-44.928 100.225-100.224v-5.184l29.375-12.097 3.457 3.456c38.879 38.88 101.951 38.88 141.695 0 38.88-38.88 38.88-101.952 0-141.695l-3.456-3.456 12.097-29.376h5.184c55.296 0 100.224-44.929 100.224-100.225s-44.928-100.224-100.224-100.224h-5.184L659.231 259.2l3.456-3.456c38.88-38.88 38.88-101.952 0-141.696-38.88-38.88-101.952-38.88-141.695 0l-3.456 3.456-29.376-12.096v-5.184C488.16 44.928 443.231 0 387.936 0S287.712 44.928 287.712 100.224v5.184L259.2 117.504l-3.456-3.456c-38.88-38.88-101.952-38.88-141.696 0-38.88 38.88-38.88 101.952 0 141.696l3.456 3.456-12.096 29.376h-5.185C44.928 288.576 0 333.504 0 387.936 0 443.231 44.928 488.16 100.224 488.16zm0-165.024h28.512l30.24-72.576-20.736-19.872c-25.056-25.056-25.056-66.528 0-91.584 25.057-25.056 66.528-25.056 91.585 0l20.735 20.736 72.576-30.24v-28.512c0-35.424 29.376-64.8 64.8-64.8 35.425 0 64.8 29.376 64.8 64.8V129.6l72.576 30.24 20.736-20.736c25.056-25.056 66.528-25.056 91.584 0 25.056 25.056 25.056 66.528 0 91.584L617.76 250.56 648 323.136h28.512c35.424 0 64.8 29.376 64.8 64.8s-29.376 64.8-64.8 64.8H648l-30.24 72.576 20.736 20.736c25.056 25.056 25.056 66.528 0 91.584-25.057 25.056-66.528 25.056-91.584 0l-20.736-20.736L453.6 648v28.512c0 35.424-29.376 64.8-64.8 64.8s-64.8-29.376-64.8-64.8V648l-73.44-30.24-20.735 20.736c-12.097 12.096-28.513 19.008-45.792 19.008-17.28 0-33.696-6.912-45.793-19.008-25.056-25.057-25.056-66.528 0-91.584l20.736-20.736-30.24-72.576h-28.512c-35.424 0-64.8-29.376-64.8-64.8 0-36.288 28.512-65.664 64.8-65.664z"/></svg>