<svg xmlns="http://www.w3.org/2000/svg" viewBox="0 0 50 50"><path d="M49.057 20.785l-6.01-1.181a21.265 21.265 0 00-1.477-3.448l3.548-5.024c.295-.493.196-1.181-.198-1.576l-4.333-4.335c-.395-.393-1.086-.491-1.577-.197l-5.024 3.448c-1.082-.59-2.265-1.084-3.448-1.379L29.455.987c-.1-.493-.69-.987-1.282-.987h-6.008c-.591 0-1.184.494-1.281.987L19.8 6.995c-1.28.394-2.463.888-3.645 1.478l-5.123-3.448c-.392-.394-1.181-.295-1.575.098L5.222 9.457c-.395.396-.494 1.084-.197 1.577l3.545 5.123c-.689 1.084-1.083 2.265-1.477 3.448l-6.01 1.181c-.59.101-1.082.593-1.082 1.183v6.107c0 .592.492 1.084 1.082 1.183l6.01 1.184a27.12 27.12 0 001.477 3.545L5.123 39.01c-.295.494-.295 1.184.099 1.578l4.333 4.334c.394.394 1.084.491 1.577.098l5.123-3.447a19.344 19.344 0 003.546 1.479l1.083 6.009c.097.492.69.984 1.183.984h6.105c.591 0 1.183-.492 1.281-.984l1.082-6.105c1.184-.397 2.367-.791 3.448-1.382l5.024 3.351c.492.395 1.184.295 1.578-.099l4.233-4.335c.493-.395.493-1.083.196-1.576l-3.448-5.024c.594-1.082 1.085-2.267 1.479-3.446l6.01-1.184c.593-.099.984-.591.984-1.183v-6.107c.003-.594-.39-1.085-.982-1.186zM25.021 35.463c-5.713 0-10.44-4.727-10.44-10.44 0-5.812 4.727-10.443 10.44-10.443a10.385 10.385 0 0110.442 10.443c0 5.713-4.629 10.44-10.442 10.44z"/></svg>