<svg xmlns="http://www.w3.org/2000/svg" viewBox="0 0 34.605 39.485"><path d="M10.639 6.534a3.267 3.267 0 100-6.534 3.267 3.267 0 000 6.534zm12.244 28.447c-1.197 0-2.168.985-2.168 2.201 0 1.215.971 2.201 2.168 2.201s2.168-.986 2.168-2.201-.971-2.201-2.168-2.201zm5.812-2.79l-3.553 1.522-2.091-4.814a10.765 10.765 0 00.003-.975l1.678 3.84c.483 1.035 1.615 1.127 2.523.709.932-.428 1.629-1.393 1.147-2.425l-1.011-2.153-2.462-4.749-.335-.735c-1.911-4.205-2.113-4.647-7.455-3.839a10.95 10.95 0 00-1.838-.762l-.239-5.273c.015-4.758 0-4.687-1.997-4.754l-6.36-.004c-1.525 0-3.114 1.432-4.233 2.814-1.409 1.595-4.586 7.374-.356 12.701a11.034 11.034 0 00-1.242 5.098c0 6.127 4.967 11.094 11.094 11.094 5.342 0 9.801-3.775 10.857-8.807l1.657 3.817a.459.459 0 00.601.237l3.972-1.701a.459.459 0 00-.36-.841zM5.776 13.219c.462 0 .366.479.366.683l.001 5.049c-.655.405-1.264.877-1.819 1.406-1.72-3.442-.051-7.138 1.452-7.138zM11.97 38.57c-5.613 0-10.179-4.566-10.179-10.179 0-1.554.351-3.026.976-4.345a14.354 14.354 0 001.478 1.36l.001-.002a1.654 1.654 0 002.633-1.33c0-.539-.258-1.015-.657-1.317a8.035 8.035 0 01-1.42-1.585 10.147 10.147 0 017.168-2.96c2.672 0 5.203 1.027 7.125 2.891 1.97 1.911 3.054 4.499 3.054 7.289-.001 5.612-4.566 10.178-10.179 10.178zm21.852-12.538s-5.064-4.74-7.111-6.611c-1.225-1.12-2.797-1.409-4.914-1.381 1.438.431 2.01 1.687 3.156 4.21l.33.725.724 1.394 5.104 4.675c1.081.973 2.273.719 2.948-.017.693-.756.841-2.024-.237-2.995z"/></svg>