<svg xmlns="http://www.w3.org/2000/svg" viewBox="0 0 795.164 1080"><path d="M742.393 652.8c-3.63-25.2-14.399-50.398-30-72l-3.63-4.8c-11.971-16.8-30-27.6-49.17-33.6l-158.43-42 106.829-160.802c11.999-18 15.601-40.8 10.771-60-1.17-16.8-10.771-32.4-25.2-42L379.963 97.2s-1.2 0-1.2-1.2c-38.4-24-87.6-22.8-124.8 3.6l-1.2 1.2L105.164 216c-25.199 19.2-30 55.2-10.801 80.4 19.2 25.2 55.2 30 80.4 10.8l144-111.6 140.4 92.4-123.6 184.8c-24 34.8-13.2 82.8 21.601 106.8 9.601 7.2 21.601 10.802 32.399 12l231.57 61.2c3.63 6 6.03 10.8 7.2 16.8 12 81.602-14.37 160.802-73.171 219.631-51.631 51.569-118.829 78-192 75.601-72-2.4-138-33.601-186-88.8-85.2-98.4-84-244.801 3.601-340.801 15.6-16.801 32.399-32.399 51.6-44.399 26.4-16.8 33.602-52.8 16.801-79.2-16.801-26.398-52.801-33.6-79.199-16.8-27.602 18-52.801 39.6-74.4 63.6-126 139.2-127.2 351.602-4.8 493.23 68.399 79.17 164.399 124.77 268.8 128.37h13.2c98.37 0 194.399-39.602 264-109.23C720.763 888 759.164 769.23 742.393 652.8z"/><circle cx="681.164" cy="114" r="114"/></svg>