<svg xmlns="http://www.w3.org/2000/svg" viewBox="0 0 36.483 45.9"><circle cx="17.163" cy="4.1" r="4.1"/><path d="M36.264 33.4c-.451-.801-1.5-1.1-2.301-.6l-1.949 1.148L26.412 21.5c-.199-.5-.648-.85-1.199-.95l-8.65-1.75 1.4-8.05c.1-.6-.1-1.2-.55-1.55-.45-.4-1.05-.5-1.65-.35L5.863 12c-.35.1-.65.35-.85.65l-4.7 6.5c-.55.75-.35 1.8.4 2.35s1.8.35 2.35-.4l4.3-6.05 3.8-1.2-1.3 6.5v.25c-4.65 2.05-7.9 6.701-7.9 12.099 0 7.25 5.9 13.201 13.2 13.201 6.35 0 11.7-4.551 12.899-10.551l1.801 2.051.1.1c.199.199.449.35.699.449.15.051.352.102.5.102.301 0 .602-.102.852-.25l3.6-2.051a1.738 1.738 0 00.65-2.35zm-21.101 9.1c-5.4 0-9.8-4.4-9.8-9.801 0-5.398 4.4-9.799 9.8-9.799s9.8 4.401 9.8 9.799c0 5.401-4.4 9.801-9.8 9.801z"/></svg>