<svg xmlns="http://www.w3.org/2000/svg" viewBox="0 0 42.112 50"><path d="M35.956.257C35.284.104 34.614 0 33.944 0a8.163 8.163 0 00-7.894 6.138 8.1 8.1 0 00-.155 3.147c-.153-.154-.36-.258-.567-.361L14.805 3.972c-1.393-.67-2.993-.103-3.715 1.238l-4.488 8.666c-.722 1.393-.154 3.096 1.187 3.817.413.207.876.31 1.29.31a2.856 2.856 0 002.528-1.548l3.198-6.19 5.416 2.579-3.662 5.726h-.774C7.119 18.467 0 25.586 0 34.304S7.119 50.09 15.836 50.09c7.841 0 14.341-5.675 15.58-13.153v8.511c0 1.807 1.495 3.3 3.301 3.3 1.807 0 3.303-1.493 3.303-3.3V33.221c0-1.341-.826-2.527-2.013-3.043l-5.674-2.321c-.722-1.651-1.755-3.146-2.993-4.436l3.044-4.798c.567-.877.877-1.806.929-2.786.206.104.465.155.671.207.671.155 1.341.258 2.011.258 3.716 0 6.965-2.528 7.895-6.139 1.029-4.334-1.601-8.77-5.934-9.906zM15.94 44.828A10.503 10.503 0 015.416 34.304 10.502 10.502 0 0115.94 23.782a10.5 10.5 0 0110.524 10.522A10.502 10.502 0 0115.94 44.828z"/></svg>