<svg xmlns="http://www.w3.org/2000/svg" viewBox="0 0 65.3 100"><path d="M26.4 23.7h.8c5.7 0 10.4 4.6 10.4 10.4v16c2.9 1.4 5.5 3.3 7.7 5.6h14.9c2.9 0 5.2 2.3 5.2 5.2v27.4c0 2.9-2.3 5.2-5.2 5.2-2.9 0-5.2-2.3-5.2-5.2V66.1h-3.6c.7 2.4 1.1 5 1.1 7.7 0 14.5-11.7 26.2-26.2 26.2S0 88.3 0 73.8C0 65.4 3.9 58 10 53.2l3.1 4.2c.4.5.8.9 1.3 1.3C9.9 62.2 7 67.6 7 73.8 7 84.4 15.6 93 26.2 93s19.2-8.6 19.2-19.2-8.6-19.2-19.2-19.2h-1.1c.3-1.7-.1-3.6-1.2-5.1l-7.1-9.8-1.7 1.2 7.1 9.8c1.5 2.1 1 5-1 6.5s-5 1-6.5-1L4.9 42.6c-1.5-2.1-1-5 1-6.5l13.7-9.9c1.9-1.6 4.2-2.5 6.8-2.5zm1.4-4.1c5.4 0 9.8-4.4 9.8-9.8S33.2 0 27.8 0 18 4.4 18 9.8s4.3 9.8 9.8 9.8z"/></svg>